<mxfile host="Electron" modified="2025-03-10T21:11:24.316Z" agent="Mozilla/5.0 (Windows NT 10.0; Win64; x64) AppleWebKit/537.36 (KHTML, like Gecko) draw.io/24.2.5 Chrome/120.0.6099.109 Electron/28.1.0 Safari/537.36" etag="kHlITL4hVCFJcFeakjkM" version="24.2.5" type="device">
  <diagram name="Page-1" id="PK43odp5sIjeRFN2Dnp0">
    <mxGraphModel dx="3341" dy="2153" grid="1" gridSize="10" guides="1" tooltips="1" connect="1" arrows="1" fold="1" page="1" pageScale="1" pageWidth="827" pageHeight="1169" math="0" shadow="0">
      <root>
        <mxCell id="0" />
        <mxCell id="1" parent="0" />
        <mxCell id="piBWAhDa9fmfzuTeJant-141" value="Bass 1" style="rounded=0;whiteSpace=wrap;html=1;fillColor=#dae8fc;strokeColor=#6c8ebf;" vertex="1" parent="1">
          <mxGeometry x="-680" y="-670" width="70" height="30" as="geometry" />
        </mxCell>
        <mxCell id="piBWAhDa9fmfzuTeJant-142" value="Bass 2" style="rounded=0;whiteSpace=wrap;html=1;fillColor=#dae8fc;strokeColor=#6c8ebf;" vertex="1" parent="1">
          <mxGeometry x="-680" y="-710" width="70" height="30" as="geometry" />
        </mxCell>
        <mxCell id="piBWAhDa9fmfzuTeJant-143" value="Tenor 1" style="rounded=0;whiteSpace=wrap;html=1;fillColor=#dae8fc;strokeColor=#6c8ebf;" vertex="1" parent="1">
          <mxGeometry x="-680" y="-590" width="70" height="30" as="geometry" />
        </mxCell>
        <mxCell id="piBWAhDa9fmfzuTeJant-144" value="Tenor 2" style="rounded=0;whiteSpace=wrap;html=1;fillColor=#dae8fc;strokeColor=#6c8ebf;" vertex="1" parent="1">
          <mxGeometry x="-680" y="-629.5" width="70" height="30" as="geometry" />
        </mxCell>
        <mxCell id="piBWAhDa9fmfzuTeJant-145" value="TTBB" style="rounded=0;whiteSpace=wrap;html=1;fillColor=#ffe6cc;strokeColor=#d79b00;" vertex="1" parent="1">
          <mxGeometry x="-600" y="-530" width="80" height="30" as="geometry" />
        </mxCell>
        <mxCell id="piBWAhDa9fmfzuTeJant-146" value="" style="shape=flexArrow;endArrow=classic;html=1;rounded=0;fillColor=#e1d5e7;strokeColor=#9673a6;" edge="1" parent="1">
          <mxGeometry width="50" height="50" relative="1" as="geometry">
            <mxPoint x="-560" y="-720" as="sourcePoint" />
            <mxPoint x="-560" y="-540" as="targetPoint" />
          </mxGeometry>
        </mxCell>
        <mxCell id="piBWAhDa9fmfzuTeJant-148" value="Bariton" style="rounded=0;whiteSpace=wrap;html=1;fillColor=#dae8fc;strokeColor=#6c8ebf;" vertex="1" parent="1">
          <mxGeometry x="-680" y="-420" width="70" height="30" as="geometry" />
        </mxCell>
        <mxCell id="piBWAhDa9fmfzuTeJant-149" value="Bass" style="rounded=0;whiteSpace=wrap;html=1;fillColor=#dae8fc;strokeColor=#6c8ebf;" vertex="1" parent="1">
          <mxGeometry x="-680" y="-460" width="70" height="30" as="geometry" />
        </mxCell>
        <mxCell id="piBWAhDa9fmfzuTeJant-150" value="Tenor" style="rounded=0;whiteSpace=wrap;html=1;fillColor=#dae8fc;strokeColor=#6c8ebf;" vertex="1" parent="1">
          <mxGeometry x="-680" y="-379.5" width="70" height="30" as="geometry" />
        </mxCell>
        <mxCell id="piBWAhDa9fmfzuTeJant-151" value="" style="shape=flexArrow;endArrow=classic;html=1;rounded=0;fillColor=#e1d5e7;strokeColor=#9673a6;" edge="1" parent="1">
          <mxGeometry width="50" height="50" relative="1" as="geometry">
            <mxPoint x="-560" y="-460" as="sourcePoint" />
            <mxPoint x="-560" y="-340" as="targetPoint" />
          </mxGeometry>
        </mxCell>
        <mxCell id="piBWAhDa9fmfzuTeJant-152" value="TBarB" style="rounded=0;whiteSpace=wrap;html=1;fillColor=#ffe6cc;strokeColor=#d79b00;" vertex="1" parent="1">
          <mxGeometry x="-600" y="-330" width="80" height="30" as="geometry" />
        </mxCell>
        <mxCell id="piBWAhDa9fmfzuTeJant-153" value="Bass" style="rounded=0;whiteSpace=wrap;html=1;fillColor=#dae8fc;strokeColor=#6c8ebf;" vertex="1" parent="1">
          <mxGeometry x="-490" y="-700" width="70" height="30" as="geometry" />
        </mxCell>
        <mxCell id="piBWAhDa9fmfzuTeJant-154" value="Tenor" style="rounded=0;whiteSpace=wrap;html=1;fillColor=#dae8fc;strokeColor=#6c8ebf;" vertex="1" parent="1">
          <mxGeometry x="-490" y="-620" width="70" height="30" as="geometry" />
        </mxCell>
        <mxCell id="piBWAhDa9fmfzuTeJant-155" value="Sopran 2" style="rounded=0;whiteSpace=wrap;html=1;fillColor=#dae8fc;strokeColor=#6c8ebf;" vertex="1" parent="1">
          <mxGeometry x="-680" y="-220" width="70" height="30" as="geometry" />
        </mxCell>
        <mxCell id="piBWAhDa9fmfzuTeJant-156" value="Sopran 1" style="rounded=0;whiteSpace=wrap;html=1;fillColor=#dae8fc;strokeColor=#6c8ebf;" vertex="1" parent="1">
          <mxGeometry x="-680" y="-260" width="70" height="30" as="geometry" />
        </mxCell>
        <mxCell id="piBWAhDa9fmfzuTeJant-157" value="Alt 2" style="rounded=0;whiteSpace=wrap;html=1;fillColor=#dae8fc;strokeColor=#6c8ebf;" vertex="1" parent="1">
          <mxGeometry x="-680" y="-140" width="70" height="30" as="geometry" />
        </mxCell>
        <mxCell id="piBWAhDa9fmfzuTeJant-158" value="Alt 1" style="rounded=0;whiteSpace=wrap;html=1;fillColor=#dae8fc;strokeColor=#6c8ebf;" vertex="1" parent="1">
          <mxGeometry x="-680" y="-179.5" width="70" height="30" as="geometry" />
        </mxCell>
        <mxCell id="piBWAhDa9fmfzuTeJant-159" value="Mezzo" style="rounded=0;whiteSpace=wrap;html=1;fillColor=#dae8fc;strokeColor=#6c8ebf;" vertex="1" parent="1">
          <mxGeometry x="-680" y="-20" width="70" height="30" as="geometry" />
        </mxCell>
        <mxCell id="piBWAhDa9fmfzuTeJant-160" value="Sopran" style="rounded=0;whiteSpace=wrap;html=1;fillColor=#dae8fc;strokeColor=#6c8ebf;" vertex="1" parent="1">
          <mxGeometry x="-680" y="-60" width="70" height="30" as="geometry" />
        </mxCell>
        <mxCell id="piBWAhDa9fmfzuTeJant-162" value="Alt" style="rounded=0;whiteSpace=wrap;html=1;fillColor=#dae8fc;strokeColor=#6c8ebf;" vertex="1" parent="1">
          <mxGeometry x="-680" y="20.5" width="70" height="30" as="geometry" />
        </mxCell>
        <mxCell id="piBWAhDa9fmfzuTeJant-163" value="" style="shape=flexArrow;endArrow=classic;html=1;rounded=0;fillColor=#e1d5e7;strokeColor=#9673a6;" edge="1" parent="1">
          <mxGeometry width="50" height="50" relative="1" as="geometry">
            <mxPoint x="-560" y="-260" as="sourcePoint" />
            <mxPoint x="-560" y="-140" as="targetPoint" />
          </mxGeometry>
        </mxCell>
        <mxCell id="piBWAhDa9fmfzuTeJant-164" value="SSAA" style="rounded=0;whiteSpace=wrap;html=1;fillColor=#ffe6cc;strokeColor=#d79b00;" vertex="1" parent="1">
          <mxGeometry x="-600" y="-130" width="80" height="30" as="geometry" />
        </mxCell>
        <mxCell id="piBWAhDa9fmfzuTeJant-165" value="" style="shape=flexArrow;endArrow=classic;html=1;rounded=0;fillColor=#e1d5e7;strokeColor=#9673a6;" edge="1" parent="1">
          <mxGeometry width="50" height="50" relative="1" as="geometry">
            <mxPoint x="-560" y="-60" as="sourcePoint" />
            <mxPoint x="-560" y="60" as="targetPoint" />
          </mxGeometry>
        </mxCell>
        <mxCell id="piBWAhDa9fmfzuTeJant-166" value="SMA" style="rounded=0;whiteSpace=wrap;html=1;fillColor=#ffe6cc;strokeColor=#d79b00;" vertex="1" parent="1">
          <mxGeometry x="-600" y="70" width="80" height="30" as="geometry" />
        </mxCell>
        <mxCell id="piBWAhDa9fmfzuTeJant-167" value="Sopran" style="rounded=0;whiteSpace=wrap;html=1;fillColor=#dae8fc;strokeColor=#6c8ebf;" vertex="1" parent="1">
          <mxGeometry x="-490" y="-240" width="70" height="30" as="geometry" />
        </mxCell>
        <mxCell id="piBWAhDa9fmfzuTeJant-168" value="Alt" style="rounded=0;whiteSpace=wrap;html=1;fillColor=#dae8fc;strokeColor=#6c8ebf;" vertex="1" parent="1">
          <mxGeometry x="-490" y="-160" width="70" height="30" as="geometry" />
        </mxCell>
        <mxCell id="piBWAhDa9fmfzuTeJant-171" value="SATB" style="rounded=0;whiteSpace=wrap;html=1;fillColor=#ffe6cc;strokeColor=#d79b00;" vertex="1" parent="1">
          <mxGeometry x="-380" y="-90" width="80" height="30" as="geometry" />
        </mxCell>
        <mxCell id="piBWAhDa9fmfzuTeJant-172" value="" style="shape=flexArrow;endArrow=classic;html=1;rounded=0;fillColor=#e1d5e7;strokeColor=#9673a6;" edge="1" parent="1">
          <mxGeometry width="50" height="50" relative="1" as="geometry">
            <mxPoint x="-340" y="-700" as="sourcePoint" />
            <mxPoint x="-340" y="-100" as="targetPoint" />
          </mxGeometry>
        </mxCell>
        <mxCell id="piBWAhDa9fmfzuTeJant-173" value="Men" style="rounded=0;whiteSpace=wrap;html=1;fillColor=#dae8fc;strokeColor=#6c8ebf;" vertex="1" parent="1">
          <mxGeometry x="-300" y="-659.5" width="70" height="30" as="geometry" />
        </mxCell>
        <mxCell id="piBWAhDa9fmfzuTeJant-175" value="SAB" style="rounded=0;whiteSpace=wrap;html=1;fillColor=#ffe6cc;strokeColor=#d79b00;" vertex="1" parent="1">
          <mxGeometry x="-230" y="-90" width="80" height="30" as="geometry" />
        </mxCell>
        <mxCell id="piBWAhDa9fmfzuTeJant-176" value="" style="shape=flexArrow;endArrow=classic;html=1;rounded=0;fillColor=#e1d5e7;strokeColor=#9673a6;" edge="1" parent="1">
          <mxGeometry width="50" height="50" relative="1" as="geometry">
            <mxPoint x="-190" y="-700" as="sourcePoint" />
            <mxPoint x="-190" y="-100" as="targetPoint" />
          </mxGeometry>
        </mxCell>
        <mxCell id="piBWAhDa9fmfzuTeJant-177" value="Unis" style="rounded=0;whiteSpace=wrap;html=1;fillColor=#dae8fc;strokeColor=#6c8ebf;" vertex="1" parent="1">
          <mxGeometry x="-60" y="-250" width="70" height="30" as="geometry" />
        </mxCell>
        <mxCell id="piBWAhDa9fmfzuTeJant-178" value="Unis" style="rounded=0;whiteSpace=wrap;html=1;fillColor=#ffe6cc;strokeColor=#d79b00;" vertex="1" parent="1">
          <mxGeometry x="50" y="-130" width="80" height="30" as="geometry" />
        </mxCell>
        <mxCell id="piBWAhDa9fmfzuTeJant-179" value="" style="shape=flexArrow;endArrow=classic;html=1;rounded=0;fillColor=#e1d5e7;strokeColor=#9673a6;" edge="1" parent="1">
          <mxGeometry width="50" height="50" relative="1" as="geometry">
            <mxPoint x="90" y="-250" as="sourcePoint" />
            <mxPoint x="89.5" y="-145" as="targetPoint" />
          </mxGeometry>
        </mxCell>
        <mxCell id="piBWAhDa9fmfzuTeJant-180" value="VoiceSection" style="shape=table;startSize=30;container=1;collapsible=1;childLayout=tableLayout;fixedRows=1;rowLines=0;fontStyle=1;align=center;resizeLast=1;html=1;fillColor=#dae8fc;strokeColor=#6c8ebf;" vertex="1" parent="1">
          <mxGeometry x="-740" y="-960" width="180" height="150" as="geometry" />
        </mxCell>
        <mxCell id="piBWAhDa9fmfzuTeJant-181" value="" style="shape=tableRow;horizontal=0;startSize=0;swimlaneHead=0;swimlaneBody=0;fillColor=none;collapsible=0;dropTarget=0;points=[[0,0.5],[1,0.5]];portConstraint=eastwest;top=0;left=0;right=0;bottom=1;" vertex="1" parent="piBWAhDa9fmfzuTeJant-180">
          <mxGeometry y="30" width="180" height="30" as="geometry" />
        </mxCell>
        <mxCell id="piBWAhDa9fmfzuTeJant-182" value="PK" style="shape=partialRectangle;connectable=0;fillColor=none;top=0;left=0;bottom=0;right=0;fontStyle=1;overflow=hidden;whiteSpace=wrap;html=1;" vertex="1" parent="piBWAhDa9fmfzuTeJant-181">
          <mxGeometry width="30" height="30" as="geometry">
            <mxRectangle width="30" height="30" as="alternateBounds" />
          </mxGeometry>
        </mxCell>
        <mxCell id="piBWAhDa9fmfzuTeJant-183" value="Id" style="shape=partialRectangle;connectable=0;fillColor=none;top=0;left=0;bottom=0;right=0;align=left;spacingLeft=6;fontStyle=5;overflow=hidden;whiteSpace=wrap;html=1;" vertex="1" parent="piBWAhDa9fmfzuTeJant-181">
          <mxGeometry x="30" width="150" height="30" as="geometry">
            <mxRectangle width="150" height="30" as="alternateBounds" />
          </mxGeometry>
        </mxCell>
        <mxCell id="piBWAhDa9fmfzuTeJant-184" value="" style="shape=tableRow;horizontal=0;startSize=0;swimlaneHead=0;swimlaneBody=0;fillColor=none;collapsible=0;dropTarget=0;points=[[0,0.5],[1,0.5]];portConstraint=eastwest;top=0;left=0;right=0;bottom=0;" vertex="1" parent="piBWAhDa9fmfzuTeJant-180">
          <mxGeometry y="60" width="180" height="30" as="geometry" />
        </mxCell>
        <mxCell id="piBWAhDa9fmfzuTeJant-185" value="FK" style="shape=partialRectangle;connectable=0;fillColor=none;top=0;left=0;bottom=0;right=0;editable=1;overflow=hidden;whiteSpace=wrap;html=1;" vertex="1" parent="piBWAhDa9fmfzuTeJant-184">
          <mxGeometry width="30" height="30" as="geometry">
            <mxRectangle width="30" height="30" as="alternateBounds" />
          </mxGeometry>
        </mxCell>
        <mxCell id="piBWAhDa9fmfzuTeJant-186" value="SectionCompositionId" style="shape=partialRectangle;connectable=0;fillColor=none;top=0;left=0;bottom=0;right=0;align=left;spacingLeft=6;overflow=hidden;whiteSpace=wrap;html=1;" vertex="1" parent="piBWAhDa9fmfzuTeJant-184">
          <mxGeometry x="30" width="150" height="30" as="geometry">
            <mxRectangle width="150" height="30" as="alternateBounds" />
          </mxGeometry>
        </mxCell>
        <mxCell id="piBWAhDa9fmfzuTeJant-187" value="" style="shape=tableRow;horizontal=0;startSize=0;swimlaneHead=0;swimlaneBody=0;fillColor=none;collapsible=0;dropTarget=0;points=[[0,0.5],[1,0.5]];portConstraint=eastwest;top=0;left=0;right=0;bottom=0;" vertex="1" parent="piBWAhDa9fmfzuTeJant-180">
          <mxGeometry y="90" width="180" height="30" as="geometry" />
        </mxCell>
        <mxCell id="piBWAhDa9fmfzuTeJant-188" value="str" style="shape=partialRectangle;connectable=0;fillColor=none;top=0;left=0;bottom=0;right=0;editable=1;overflow=hidden;whiteSpace=wrap;html=1;" vertex="1" parent="piBWAhDa9fmfzuTeJant-187">
          <mxGeometry width="30" height="30" as="geometry">
            <mxRectangle width="30" height="30" as="alternateBounds" />
          </mxGeometry>
        </mxCell>
        <mxCell id="piBWAhDa9fmfzuTeJant-189" value="Name" style="shape=partialRectangle;connectable=0;fillColor=none;top=0;left=0;bottom=0;right=0;align=left;spacingLeft=6;overflow=hidden;whiteSpace=wrap;html=1;" vertex="1" parent="piBWAhDa9fmfzuTeJant-187">
          <mxGeometry x="30" width="150" height="30" as="geometry">
            <mxRectangle width="150" height="30" as="alternateBounds" />
          </mxGeometry>
        </mxCell>
        <mxCell id="piBWAhDa9fmfzuTeJant-190" value="" style="shape=tableRow;horizontal=0;startSize=0;swimlaneHead=0;swimlaneBody=0;fillColor=none;collapsible=0;dropTarget=0;points=[[0,0.5],[1,0.5]];portConstraint=eastwest;top=0;left=0;right=0;bottom=0;" vertex="1" parent="piBWAhDa9fmfzuTeJant-180">
          <mxGeometry y="120" width="180" height="30" as="geometry" />
        </mxCell>
        <mxCell id="piBWAhDa9fmfzuTeJant-191" value="str" style="shape=partialRectangle;connectable=0;fillColor=none;top=0;left=0;bottom=0;right=0;editable=1;overflow=hidden;whiteSpace=wrap;html=1;" vertex="1" parent="piBWAhDa9fmfzuTeJant-190">
          <mxGeometry width="30" height="30" as="geometry">
            <mxRectangle width="30" height="30" as="alternateBounds" />
          </mxGeometry>
        </mxCell>
        <mxCell id="piBWAhDa9fmfzuTeJant-192" value="Shortname" style="shape=partialRectangle;connectable=0;fillColor=none;top=0;left=0;bottom=0;right=0;align=left;spacingLeft=6;overflow=hidden;whiteSpace=wrap;html=1;" vertex="1" parent="piBWAhDa9fmfzuTeJant-190">
          <mxGeometry x="30" width="150" height="30" as="geometry">
            <mxRectangle width="150" height="30" as="alternateBounds" />
          </mxGeometry>
        </mxCell>
        <mxCell id="piBWAhDa9fmfzuTeJant-193" value="SectionComposition" style="shape=table;startSize=30;container=1;collapsible=1;childLayout=tableLayout;fixedRows=1;rowLines=0;fontStyle=1;align=center;resizeLast=1;html=1;fillColor=#ffe6cc;strokeColor=#d79b00;" vertex="1" parent="1">
          <mxGeometry x="-99.96" y="-920" width="180" height="150" as="geometry" />
        </mxCell>
        <mxCell id="piBWAhDa9fmfzuTeJant-194" value="" style="shape=tableRow;horizontal=0;startSize=0;swimlaneHead=0;swimlaneBody=0;fillColor=none;collapsible=0;dropTarget=0;points=[[0,0.5],[1,0.5]];portConstraint=eastwest;top=0;left=0;right=0;bottom=1;" vertex="1" parent="piBWAhDa9fmfzuTeJant-193">
          <mxGeometry y="30" width="180" height="30" as="geometry" />
        </mxCell>
        <mxCell id="piBWAhDa9fmfzuTeJant-195" value="PK" style="shape=partialRectangle;connectable=0;fillColor=none;top=0;left=0;bottom=0;right=0;fontStyle=1;overflow=hidden;whiteSpace=wrap;html=1;" vertex="1" parent="piBWAhDa9fmfzuTeJant-194">
          <mxGeometry width="30" height="30" as="geometry">
            <mxRectangle width="30" height="30" as="alternateBounds" />
          </mxGeometry>
        </mxCell>
        <mxCell id="piBWAhDa9fmfzuTeJant-196" value="Id" style="shape=partialRectangle;connectable=0;fillColor=none;top=0;left=0;bottom=0;right=0;align=left;spacingLeft=6;fontStyle=5;overflow=hidden;whiteSpace=wrap;html=1;" vertex="1" parent="piBWAhDa9fmfzuTeJant-194">
          <mxGeometry x="30" width="150" height="30" as="geometry">
            <mxRectangle width="150" height="30" as="alternateBounds" />
          </mxGeometry>
        </mxCell>
        <mxCell id="piBWAhDa9fmfzuTeJant-197" value="" style="shape=tableRow;horizontal=0;startSize=0;swimlaneHead=0;swimlaneBody=0;fillColor=none;collapsible=0;dropTarget=0;points=[[0,0.5],[1,0.5]];portConstraint=eastwest;top=0;left=0;right=0;bottom=0;" vertex="1" parent="piBWAhDa9fmfzuTeJant-193">
          <mxGeometry y="60" width="180" height="30" as="geometry" />
        </mxCell>
        <mxCell id="piBWAhDa9fmfzuTeJant-198" value="str" style="shape=partialRectangle;connectable=0;fillColor=none;top=0;left=0;bottom=0;right=0;editable=1;overflow=hidden;whiteSpace=wrap;html=1;" vertex="1" parent="piBWAhDa9fmfzuTeJant-197">
          <mxGeometry width="30" height="30" as="geometry">
            <mxRectangle width="30" height="30" as="alternateBounds" />
          </mxGeometry>
        </mxCell>
        <mxCell id="piBWAhDa9fmfzuTeJant-199" value="Name" style="shape=partialRectangle;connectable=0;fillColor=none;top=0;left=0;bottom=0;right=0;align=left;spacingLeft=6;overflow=hidden;whiteSpace=wrap;html=1;" vertex="1" parent="piBWAhDa9fmfzuTeJant-197">
          <mxGeometry x="30" width="150" height="30" as="geometry">
            <mxRectangle width="150" height="30" as="alternateBounds" />
          </mxGeometry>
        </mxCell>
        <mxCell id="piBWAhDa9fmfzuTeJant-200" value="" style="shape=tableRow;horizontal=0;startSize=0;swimlaneHead=0;swimlaneBody=0;fillColor=none;collapsible=0;dropTarget=0;points=[[0,0.5],[1,0.5]];portConstraint=eastwest;top=0;left=0;right=0;bottom=0;" vertex="1" parent="piBWAhDa9fmfzuTeJant-193">
          <mxGeometry y="90" width="180" height="30" as="geometry" />
        </mxCell>
        <mxCell id="piBWAhDa9fmfzuTeJant-201" value="str" style="shape=partialRectangle;connectable=0;fillColor=none;top=0;left=0;bottom=0;right=0;editable=1;overflow=hidden;whiteSpace=wrap;html=1;" vertex="1" parent="piBWAhDa9fmfzuTeJant-200">
          <mxGeometry width="30" height="30" as="geometry">
            <mxRectangle width="30" height="30" as="alternateBounds" />
          </mxGeometry>
        </mxCell>
        <mxCell id="piBWAhDa9fmfzuTeJant-202" value="Shortname" style="shape=partialRectangle;connectable=0;fillColor=none;top=0;left=0;bottom=0;right=0;align=left;spacingLeft=6;overflow=hidden;whiteSpace=wrap;html=1;" vertex="1" parent="piBWAhDa9fmfzuTeJant-200">
          <mxGeometry x="30" width="150" height="30" as="geometry">
            <mxRectangle width="150" height="30" as="alternateBounds" />
          </mxGeometry>
        </mxCell>
        <mxCell id="piBWAhDa9fmfzuTeJant-203" value="" style="shape=tableRow;horizontal=0;startSize=0;swimlaneHead=0;swimlaneBody=0;fillColor=none;collapsible=0;dropTarget=0;points=[[0,0.5],[1,0.5]];portConstraint=eastwest;top=0;left=0;right=0;bottom=0;" vertex="1" parent="piBWAhDa9fmfzuTeJant-193">
          <mxGeometry y="120" width="180" height="30" as="geometry" />
        </mxCell>
        <mxCell id="piBWAhDa9fmfzuTeJant-204" value="str" style="shape=partialRectangle;connectable=0;fillColor=none;top=0;left=0;bottom=0;right=0;editable=1;overflow=hidden;whiteSpace=wrap;html=1;" vertex="1" parent="piBWAhDa9fmfzuTeJant-203">
          <mxGeometry width="30" height="30" as="geometry">
            <mxRectangle width="30" height="30" as="alternateBounds" />
          </mxGeometry>
        </mxCell>
        <mxCell id="piBWAhDa9fmfzuTeJant-205" value="Description" style="shape=partialRectangle;connectable=0;fillColor=none;top=0;left=0;bottom=0;right=0;align=left;spacingLeft=6;overflow=hidden;whiteSpace=wrap;html=1;" vertex="1" parent="piBWAhDa9fmfzuTeJant-203">
          <mxGeometry x="30" width="150" height="30" as="geometry">
            <mxRectangle width="150" height="30" as="alternateBounds" />
          </mxGeometry>
        </mxCell>
        <mxCell id="piBWAhDa9fmfzuTeJant-206" value="SectionCompositionSelfRel" style="shape=table;startSize=30;container=1;collapsible=1;childLayout=tableLayout;fixedRows=1;rowLines=0;fontStyle=1;align=center;resizeLast=1;html=1;fillColor=#f8cecc;strokeColor=#b85450;" vertex="1" parent="1">
          <mxGeometry x="-1020" y="-1076" width="210" height="150" as="geometry" />
        </mxCell>
        <mxCell id="piBWAhDa9fmfzuTeJant-207" value="" style="shape=tableRow;horizontal=0;startSize=0;swimlaneHead=0;swimlaneBody=0;fillColor=none;collapsible=0;dropTarget=0;points=[[0,0.5],[1,0.5]];portConstraint=eastwest;top=0;left=0;right=0;bottom=1;" vertex="1" parent="piBWAhDa9fmfzuTeJant-206">
          <mxGeometry y="30" width="210" height="30" as="geometry" />
        </mxCell>
        <mxCell id="piBWAhDa9fmfzuTeJant-208" value="PK" style="shape=partialRectangle;connectable=0;fillColor=none;top=0;left=0;bottom=0;right=0;fontStyle=1;overflow=hidden;whiteSpace=wrap;html=1;" vertex="1" parent="piBWAhDa9fmfzuTeJant-207">
          <mxGeometry width="30" height="30" as="geometry">
            <mxRectangle width="30" height="30" as="alternateBounds" />
          </mxGeometry>
        </mxCell>
        <mxCell id="piBWAhDa9fmfzuTeJant-209" value="Id" style="shape=partialRectangle;connectable=0;fillColor=none;top=0;left=0;bottom=0;right=0;align=left;spacingLeft=6;fontStyle=5;overflow=hidden;whiteSpace=wrap;html=1;" vertex="1" parent="piBWAhDa9fmfzuTeJant-207">
          <mxGeometry x="30" width="180" height="30" as="geometry">
            <mxRectangle width="180" height="30" as="alternateBounds" />
          </mxGeometry>
        </mxCell>
        <mxCell id="piBWAhDa9fmfzuTeJant-210" value="" style="shape=tableRow;horizontal=0;startSize=0;swimlaneHead=0;swimlaneBody=0;fillColor=none;collapsible=0;dropTarget=0;points=[[0,0.5],[1,0.5]];portConstraint=eastwest;top=0;left=0;right=0;bottom=0;" vertex="1" parent="piBWAhDa9fmfzuTeJant-206">
          <mxGeometry y="60" width="210" height="30" as="geometry" />
        </mxCell>
        <mxCell id="piBWAhDa9fmfzuTeJant-211" value="FK" style="shape=partialRectangle;connectable=0;fillColor=none;top=0;left=0;bottom=0;right=0;editable=1;overflow=hidden;whiteSpace=wrap;html=1;" vertex="1" parent="piBWAhDa9fmfzuTeJant-210">
          <mxGeometry width="30" height="30" as="geometry">
            <mxRectangle width="30" height="30" as="alternateBounds" />
          </mxGeometry>
        </mxCell>
        <mxCell id="piBWAhDa9fmfzuTeJant-212" value="SubVoiceSectionId" style="shape=partialRectangle;connectable=0;fillColor=none;top=0;left=0;bottom=0;right=0;align=left;spacingLeft=6;overflow=hidden;whiteSpace=wrap;html=1;" vertex="1" parent="piBWAhDa9fmfzuTeJant-210">
          <mxGeometry x="30" width="180" height="30" as="geometry">
            <mxRectangle width="180" height="30" as="alternateBounds" />
          </mxGeometry>
        </mxCell>
        <mxCell id="piBWAhDa9fmfzuTeJant-213" value="" style="shape=tableRow;horizontal=0;startSize=0;swimlaneHead=0;swimlaneBody=0;fillColor=none;collapsible=0;dropTarget=0;points=[[0,0.5],[1,0.5]];portConstraint=eastwest;top=0;left=0;right=0;bottom=0;" vertex="1" parent="piBWAhDa9fmfzuTeJant-206">
          <mxGeometry y="90" width="210" height="30" as="geometry" />
        </mxCell>
        <mxCell id="piBWAhDa9fmfzuTeJant-214" value="FK" style="shape=partialRectangle;connectable=0;fillColor=none;top=0;left=0;bottom=0;right=0;editable=1;overflow=hidden;whiteSpace=wrap;html=1;" vertex="1" parent="piBWAhDa9fmfzuTeJant-213">
          <mxGeometry width="30" height="30" as="geometry">
            <mxRectangle width="30" height="30" as="alternateBounds" />
          </mxGeometry>
        </mxCell>
        <mxCell id="piBWAhDa9fmfzuTeJant-215" value="SuperVoiceSectionId" style="shape=partialRectangle;connectable=0;fillColor=none;top=0;left=0;bottom=0;right=0;align=left;spacingLeft=6;overflow=hidden;whiteSpace=wrap;html=1;" vertex="1" parent="piBWAhDa9fmfzuTeJant-213">
          <mxGeometry x="30" width="180" height="30" as="geometry">
            <mxRectangle width="180" height="30" as="alternateBounds" />
          </mxGeometry>
        </mxCell>
        <mxCell id="piBWAhDa9fmfzuTeJant-216" value="" style="shape=tableRow;horizontal=0;startSize=0;swimlaneHead=0;swimlaneBody=0;fillColor=none;collapsible=0;dropTarget=0;points=[[0,0.5],[1,0.5]];portConstraint=eastwest;top=0;left=0;right=0;bottom=0;" vertex="1" parent="piBWAhDa9fmfzuTeJant-206">
          <mxGeometry y="120" width="210" height="30" as="geometry" />
        </mxCell>
        <mxCell id="piBWAhDa9fmfzuTeJant-217" value="bool" style="shape=partialRectangle;connectable=0;fillColor=none;top=0;left=0;bottom=0;right=0;editable=1;overflow=hidden;whiteSpace=wrap;html=1;" vertex="1" parent="piBWAhDa9fmfzuTeJant-216">
          <mxGeometry width="30" height="30" as="geometry">
            <mxRectangle width="30" height="30" as="alternateBounds" />
          </mxGeometry>
        </mxCell>
        <mxCell id="piBWAhDa9fmfzuTeJant-218" value="IsEqualTo" style="shape=partialRectangle;connectable=0;fillColor=none;top=0;left=0;bottom=0;right=0;align=left;spacingLeft=6;overflow=hidden;whiteSpace=wrap;html=1;" vertex="1" parent="piBWAhDa9fmfzuTeJant-216">
          <mxGeometry x="30" width="180" height="30" as="geometry">
            <mxRectangle width="180" height="30" as="alternateBounds" />
          </mxGeometry>
        </mxCell>
        <mxCell id="piBWAhDa9fmfzuTeJant-219" value="SectionCompositionRule" style="shape=table;startSize=30;container=1;collapsible=1;childLayout=tableLayout;fixedRows=1;rowLines=0;fontStyle=1;align=center;resizeLast=1;html=1;fillColor=#d5e8d4;strokeColor=#82b366;" vertex="1" parent="1">
          <mxGeometry x="-499.99999999999994" y="-1140" width="220" height="150" as="geometry" />
        </mxCell>
        <mxCell id="piBWAhDa9fmfzuTeJant-220" value="" style="shape=tableRow;horizontal=0;startSize=0;swimlaneHead=0;swimlaneBody=0;fillColor=none;collapsible=0;dropTarget=0;points=[[0,0.5],[1,0.5]];portConstraint=eastwest;top=0;left=0;right=0;bottom=1;" vertex="1" parent="piBWAhDa9fmfzuTeJant-219">
          <mxGeometry y="30" width="220" height="30" as="geometry" />
        </mxCell>
        <mxCell id="piBWAhDa9fmfzuTeJant-221" value="PK" style="shape=partialRectangle;connectable=0;fillColor=none;top=0;left=0;bottom=0;right=0;fontStyle=1;overflow=hidden;whiteSpace=wrap;html=1;" vertex="1" parent="piBWAhDa9fmfzuTeJant-220">
          <mxGeometry width="30" height="30" as="geometry">
            <mxRectangle width="30" height="30" as="alternateBounds" />
          </mxGeometry>
        </mxCell>
        <mxCell id="piBWAhDa9fmfzuTeJant-222" value="Id" style="shape=partialRectangle;connectable=0;fillColor=none;top=0;left=0;bottom=0;right=0;align=left;spacingLeft=6;fontStyle=5;overflow=hidden;whiteSpace=wrap;html=1;" vertex="1" parent="piBWAhDa9fmfzuTeJant-220">
          <mxGeometry x="30" width="190" height="30" as="geometry">
            <mxRectangle width="190" height="30" as="alternateBounds" />
          </mxGeometry>
        </mxCell>
        <mxCell id="piBWAhDa9fmfzuTeJant-223" value="" style="shape=tableRow;horizontal=0;startSize=0;swimlaneHead=0;swimlaneBody=0;fillColor=none;collapsible=0;dropTarget=0;points=[[0,0.5],[1,0.5]];portConstraint=eastwest;top=0;left=0;right=0;bottom=0;" vertex="1" parent="piBWAhDa9fmfzuTeJant-219">
          <mxGeometry y="60" width="220" height="30" as="geometry" />
        </mxCell>
        <mxCell id="piBWAhDa9fmfzuTeJant-224" value="FK" style="shape=partialRectangle;connectable=0;fillColor=none;top=0;left=0;bottom=0;right=0;editable=1;overflow=hidden;whiteSpace=wrap;html=1;" vertex="1" parent="piBWAhDa9fmfzuTeJant-223">
          <mxGeometry width="30" height="30" as="geometry">
            <mxRectangle width="30" height="30" as="alternateBounds" />
          </mxGeometry>
        </mxCell>
        <mxCell id="piBWAhDa9fmfzuTeJant-225" value="PrimaryVoiceSectionId" style="shape=partialRectangle;connectable=0;fillColor=none;top=0;left=0;bottom=0;right=0;align=left;spacingLeft=6;overflow=hidden;whiteSpace=wrap;html=1;" vertex="1" parent="piBWAhDa9fmfzuTeJant-223">
          <mxGeometry x="30" width="190" height="30" as="geometry">
            <mxRectangle width="190" height="30" as="alternateBounds" />
          </mxGeometry>
        </mxCell>
        <mxCell id="piBWAhDa9fmfzuTeJant-226" value="" style="shape=tableRow;horizontal=0;startSize=0;swimlaneHead=0;swimlaneBody=0;fillColor=none;collapsible=0;dropTarget=0;points=[[0,0.5],[1,0.5]];portConstraint=eastwest;top=0;left=0;right=0;bottom=0;" vertex="1" parent="piBWAhDa9fmfzuTeJant-219">
          <mxGeometry y="90" width="220" height="30" as="geometry" />
        </mxCell>
        <mxCell id="piBWAhDa9fmfzuTeJant-227" value="FK" style="shape=partialRectangle;connectable=0;fillColor=none;top=0;left=0;bottom=0;right=0;editable=1;overflow=hidden;whiteSpace=wrap;html=1;" vertex="1" parent="piBWAhDa9fmfzuTeJant-226">
          <mxGeometry width="30" height="30" as="geometry">
            <mxRectangle width="30" height="30" as="alternateBounds" />
          </mxGeometry>
        </mxCell>
        <mxCell id="piBWAhDa9fmfzuTeJant-228" value="SecondaryVoiceSectionId" style="shape=partialRectangle;connectable=0;fillColor=none;top=0;left=0;bottom=0;right=0;align=left;spacingLeft=6;overflow=hidden;whiteSpace=wrap;html=1;" vertex="1" parent="piBWAhDa9fmfzuTeJant-226">
          <mxGeometry x="30" width="190" height="30" as="geometry">
            <mxRectangle width="190" height="30" as="alternateBounds" />
          </mxGeometry>
        </mxCell>
        <mxCell id="piBWAhDa9fmfzuTeJant-229" value="" style="shape=tableRow;horizontal=0;startSize=0;swimlaneHead=0;swimlaneBody=0;fillColor=none;collapsible=0;dropTarget=0;points=[[0,0.5],[1,0.5]];portConstraint=eastwest;top=0;left=0;right=0;bottom=0;" vertex="1" parent="piBWAhDa9fmfzuTeJant-219">
          <mxGeometry y="120" width="220" height="30" as="geometry" />
        </mxCell>
        <mxCell id="piBWAhDa9fmfzuTeJant-230" value="enum" style="shape=partialRectangle;connectable=0;fillColor=none;top=0;left=0;bottom=0;right=0;editable=1;overflow=hidden;whiteSpace=wrap;html=1;" vertex="1" parent="piBWAhDa9fmfzuTeJant-229">
          <mxGeometry width="30" height="30" as="geometry">
            <mxRectangle width="30" height="30" as="alternateBounds" />
          </mxGeometry>
        </mxCell>
        <mxCell id="piBWAhDa9fmfzuTeJant-231" value="Ruletype" style="shape=partialRectangle;connectable=0;fillColor=none;top=0;left=0;bottom=0;right=0;align=left;spacingLeft=6;overflow=hidden;whiteSpace=wrap;html=1;" vertex="1" parent="piBWAhDa9fmfzuTeJant-229">
          <mxGeometry x="30" width="190" height="30" as="geometry">
            <mxRectangle width="190" height="30" as="alternateBounds" />
          </mxGeometry>
        </mxCell>
        <mxCell id="piBWAhDa9fmfzuTeJant-232" value="" style="edgeStyle=entityRelationEdgeStyle;fontSize=12;html=1;endArrow=ERoneToMany;rounded=0;" edge="1" parent="1" source="piBWAhDa9fmfzuTeJant-181" target="piBWAhDa9fmfzuTeJant-226">
          <mxGeometry width="100" height="100" relative="1" as="geometry">
            <mxPoint x="-370" y="-830" as="sourcePoint" />
            <mxPoint x="-270" y="-930" as="targetPoint" />
          </mxGeometry>
        </mxCell>
        <mxCell id="piBWAhDa9fmfzuTeJant-233" value="" style="edgeStyle=entityRelationEdgeStyle;fontSize=12;html=1;endArrow=ERoneToMany;rounded=0;" edge="1" parent="1" source="piBWAhDa9fmfzuTeJant-181" target="piBWAhDa9fmfzuTeJant-223">
          <mxGeometry width="100" height="100" relative="1" as="geometry">
            <mxPoint x="-370" y="-830" as="sourcePoint" />
            <mxPoint x="-270" y="-930" as="targetPoint" />
          </mxGeometry>
        </mxCell>
        <mxCell id="piBWAhDa9fmfzuTeJant-234" value="Ruletype" style="swimlane;fontStyle=0;childLayout=stackLayout;horizontal=1;startSize=26;horizontalStack=0;resizeParent=1;resizeParentMax=0;resizeLast=0;collapsible=1;marginBottom=0;align=center;fontSize=14;fillColor=#d5e8d4;strokeColor=#82b366;" vertex="1" parent="1">
          <mxGeometry x="-160" y="-1150" width="160" height="116" as="geometry" />
        </mxCell>
        <mxCell id="piBWAhDa9fmfzuTeJant-235" value="IsAlwaysA" style="text;strokeColor=none;fillColor=none;spacingLeft=4;spacingRight=4;overflow=hidden;rotatable=0;points=[[0,0.5],[1,0.5]];portConstraint=eastwest;fontSize=12;whiteSpace=wrap;html=1;" vertex="1" parent="piBWAhDa9fmfzuTeJant-234">
          <mxGeometry y="26" width="160" height="30" as="geometry" />
        </mxCell>
        <mxCell id="piBWAhDa9fmfzuTeJant-236" value="IsNeverA" style="text;strokeColor=none;fillColor=none;spacingLeft=4;spacingRight=4;overflow=hidden;rotatable=0;points=[[0,0.5],[1,0.5]];portConstraint=eastwest;fontSize=12;whiteSpace=wrap;html=1;" vertex="1" parent="piBWAhDa9fmfzuTeJant-234">
          <mxGeometry y="56" width="160" height="30" as="geometry" />
        </mxCell>
        <mxCell id="piBWAhDa9fmfzuTeJant-237" value="CanBeA" style="text;strokeColor=none;fillColor=none;spacingLeft=4;spacingRight=4;overflow=hidden;rotatable=0;points=[[0,0.5],[1,0.5]];portConstraint=eastwest;fontSize=12;whiteSpace=wrap;html=1;" vertex="1" parent="piBWAhDa9fmfzuTeJant-234">
          <mxGeometry y="86" width="160" height="30" as="geometry" />
        </mxCell>
        <mxCell id="piBWAhDa9fmfzuTeJant-238" style="edgeStyle=orthogonalEdgeStyle;rounded=0;orthogonalLoop=1;jettySize=auto;html=1;exitX=1;exitY=0.5;exitDx=0;exitDy=0;" edge="1" parent="1" source="piBWAhDa9fmfzuTeJant-229" target="piBWAhDa9fmfzuTeJant-234">
          <mxGeometry relative="1" as="geometry" />
        </mxCell>
        <mxCell id="piBWAhDa9fmfzuTeJant-239" value="VoiceSectionCompositionRel" style="shape=table;startSize=30;container=1;collapsible=1;childLayout=tableLayout;fixedRows=1;rowLines=0;fontStyle=1;align=center;resizeLast=1;html=1;fillColor=#e1d5e7;strokeColor=#9673a6;" vertex="1" parent="1">
          <mxGeometry x="-390" y="-935" width="180" height="120" as="geometry" />
        </mxCell>
        <mxCell id="piBWAhDa9fmfzuTeJant-240" value="" style="shape=tableRow;horizontal=0;startSize=0;swimlaneHead=0;swimlaneBody=0;fillColor=none;collapsible=0;dropTarget=0;points=[[0,0.5],[1,0.5]];portConstraint=eastwest;top=0;left=0;right=0;bottom=1;" vertex="1" parent="piBWAhDa9fmfzuTeJant-239">
          <mxGeometry y="30" width="180" height="30" as="geometry" />
        </mxCell>
        <mxCell id="piBWAhDa9fmfzuTeJant-241" value="PK" style="shape=partialRectangle;connectable=0;fillColor=none;top=0;left=0;bottom=0;right=0;fontStyle=1;overflow=hidden;whiteSpace=wrap;html=1;" vertex="1" parent="piBWAhDa9fmfzuTeJant-240">
          <mxGeometry width="30" height="30" as="geometry">
            <mxRectangle width="30" height="30" as="alternateBounds" />
          </mxGeometry>
        </mxCell>
        <mxCell id="piBWAhDa9fmfzuTeJant-242" value="Id" style="shape=partialRectangle;connectable=0;fillColor=none;top=0;left=0;bottom=0;right=0;align=left;spacingLeft=6;fontStyle=5;overflow=hidden;whiteSpace=wrap;html=1;" vertex="1" parent="piBWAhDa9fmfzuTeJant-240">
          <mxGeometry x="30" width="150" height="30" as="geometry">
            <mxRectangle width="150" height="30" as="alternateBounds" />
          </mxGeometry>
        </mxCell>
        <mxCell id="piBWAhDa9fmfzuTeJant-243" value="" style="shape=tableRow;horizontal=0;startSize=0;swimlaneHead=0;swimlaneBody=0;fillColor=none;collapsible=0;dropTarget=0;points=[[0,0.5],[1,0.5]];portConstraint=eastwest;top=0;left=0;right=0;bottom=0;" vertex="1" parent="piBWAhDa9fmfzuTeJant-239">
          <mxGeometry y="60" width="180" height="30" as="geometry" />
        </mxCell>
        <mxCell id="piBWAhDa9fmfzuTeJant-244" value="FK" style="shape=partialRectangle;connectable=0;fillColor=none;top=0;left=0;bottom=0;right=0;editable=1;overflow=hidden;whiteSpace=wrap;html=1;" vertex="1" parent="piBWAhDa9fmfzuTeJant-243">
          <mxGeometry width="30" height="30" as="geometry">
            <mxRectangle width="30" height="30" as="alternateBounds" />
          </mxGeometry>
        </mxCell>
        <mxCell id="piBWAhDa9fmfzuTeJant-245" value="VoiceSectionId" style="shape=partialRectangle;connectable=0;fillColor=none;top=0;left=0;bottom=0;right=0;align=left;spacingLeft=6;overflow=hidden;whiteSpace=wrap;html=1;" vertex="1" parent="piBWAhDa9fmfzuTeJant-243">
          <mxGeometry x="30" width="150" height="30" as="geometry">
            <mxRectangle width="150" height="30" as="alternateBounds" />
          </mxGeometry>
        </mxCell>
        <mxCell id="piBWAhDa9fmfzuTeJant-246" value="" style="shape=tableRow;horizontal=0;startSize=0;swimlaneHead=0;swimlaneBody=0;fillColor=none;collapsible=0;dropTarget=0;points=[[0,0.5],[1,0.5]];portConstraint=eastwest;top=0;left=0;right=0;bottom=0;" vertex="1" parent="piBWAhDa9fmfzuTeJant-239">
          <mxGeometry y="90" width="180" height="30" as="geometry" />
        </mxCell>
        <mxCell id="piBWAhDa9fmfzuTeJant-247" value="FK" style="shape=partialRectangle;connectable=0;fillColor=none;top=0;left=0;bottom=0;right=0;editable=1;overflow=hidden;whiteSpace=wrap;html=1;" vertex="1" parent="piBWAhDa9fmfzuTeJant-246">
          <mxGeometry width="30" height="30" as="geometry">
            <mxRectangle width="30" height="30" as="alternateBounds" />
          </mxGeometry>
        </mxCell>
        <mxCell id="piBWAhDa9fmfzuTeJant-248" value="SectionCompositionId" style="shape=partialRectangle;connectable=0;fillColor=none;top=0;left=0;bottom=0;right=0;align=left;spacingLeft=6;overflow=hidden;whiteSpace=wrap;html=1;" vertex="1" parent="piBWAhDa9fmfzuTeJant-246">
          <mxGeometry x="30" width="150" height="30" as="geometry">
            <mxRectangle width="150" height="30" as="alternateBounds" />
          </mxGeometry>
        </mxCell>
        <mxCell id="piBWAhDa9fmfzuTeJant-249" value="" style="edgeStyle=entityRelationEdgeStyle;fontSize=12;html=1;endArrow=ERoneToMany;rounded=0;" edge="1" parent="1" source="piBWAhDa9fmfzuTeJant-194" target="piBWAhDa9fmfzuTeJant-246">
          <mxGeometry width="100" height="100" relative="1" as="geometry">
            <mxPoint x="-210" y="-710" as="sourcePoint" />
            <mxPoint x="-110.00000000000001" y="-810" as="targetPoint" />
          </mxGeometry>
        </mxCell>
        <mxCell id="piBWAhDa9fmfzuTeJant-250" value="" style="edgeStyle=entityRelationEdgeStyle;fontSize=12;html=1;endArrow=ERoneToMany;rounded=0;" edge="1" parent="1" source="piBWAhDa9fmfzuTeJant-181" target="piBWAhDa9fmfzuTeJant-243">
          <mxGeometry width="100" height="100" relative="1" as="geometry">
            <mxPoint x="-210" y="-710" as="sourcePoint" />
            <mxPoint x="-110.00000000000001" y="-810" as="targetPoint" />
          </mxGeometry>
        </mxCell>
        <mxCell id="piBWAhDa9fmfzuTeJant-251" value="" style="edgeStyle=entityRelationEdgeStyle;fontSize=12;html=1;endArrow=ERoneToMany;rounded=0;" edge="1" parent="1" source="piBWAhDa9fmfzuTeJant-181" target="piBWAhDa9fmfzuTeJant-210">
          <mxGeometry width="100" height="100" relative="1" as="geometry">
            <mxPoint x="-509.99999999999994" y="-810" as="sourcePoint" />
            <mxPoint x="-410" y="-910" as="targetPoint" />
          </mxGeometry>
        </mxCell>
        <mxCell id="piBWAhDa9fmfzuTeJant-252" value="" style="edgeStyle=entityRelationEdgeStyle;fontSize=12;html=1;endArrow=ERoneToMany;rounded=0;" edge="1" parent="1" source="piBWAhDa9fmfzuTeJant-181" target="piBWAhDa9fmfzuTeJant-213">
          <mxGeometry width="100" height="100" relative="1" as="geometry">
            <mxPoint x="-509.99999999999994" y="-810" as="sourcePoint" />
            <mxPoint x="-410" y="-910" as="targetPoint" />
          </mxGeometry>
        </mxCell>
        <mxCell id="piBWAhDa9fmfzuTeJant-253" value="Men" style="rounded=0;whiteSpace=wrap;html=1;fillColor=#dae8fc;strokeColor=#6c8ebf;" vertex="1" parent="1">
          <mxGeometry x="-300" y="-420" width="70" height="30" as="geometry" />
        </mxCell>
        <mxCell id="piBWAhDa9fmfzuTeJant-257" value="" style="shape=flexArrow;endArrow=classic;html=1;rounded=0;fillColor=#f8cecc;strokeColor=#b85450;" edge="1" parent="1">
          <mxGeometry width="50" height="50" relative="1" as="geometry">
            <mxPoint x="-540" y="-400" as="sourcePoint" />
            <mxPoint x="-320" y="-400" as="targetPoint" />
          </mxGeometry>
        </mxCell>
        <mxCell id="piBWAhDa9fmfzuTeJant-258" value="" style="shape=flexArrow;endArrow=classic;html=1;rounded=0;fillColor=#f8cecc;strokeColor=#b85450;" edge="1" parent="1">
          <mxGeometry width="50" height="50" relative="1" as="geometry">
            <mxPoint x="-590" y="-685.5" as="sourcePoint" />
            <mxPoint x="-500" y="-685" as="targetPoint" />
          </mxGeometry>
        </mxCell>
        <mxCell id="piBWAhDa9fmfzuTeJant-259" value="" style="shape=flexArrow;endArrow=classic;html=1;rounded=0;fillColor=#f8cecc;strokeColor=#b85450;" edge="1" parent="1">
          <mxGeometry width="50" height="50" relative="1" as="geometry">
            <mxPoint x="-590" y="-599.5" as="sourcePoint" />
            <mxPoint x="-500" y="-599" as="targetPoint" />
          </mxGeometry>
        </mxCell>
        <mxCell id="piBWAhDa9fmfzuTeJant-260" value="" style="shape=flexArrow;endArrow=classic;html=1;rounded=0;fillColor=#f8cecc;strokeColor=#b85450;" edge="1" parent="1">
          <mxGeometry width="50" height="50" relative="1" as="geometry">
            <mxPoint x="-400" y="-644.84" as="sourcePoint" />
            <mxPoint x="-310" y="-644.34" as="targetPoint" />
          </mxGeometry>
        </mxCell>
        <mxCell id="piBWAhDa9fmfzuTeJant-261" value="" style="shape=flexArrow;endArrow=classic;startArrow=classic;html=1;rounded=0;fillColor=#f8cecc;strokeColor=#b85450;" edge="1" parent="1">
          <mxGeometry width="100" height="100" relative="1" as="geometry">
            <mxPoint x="-265.42" y="-440" as="sourcePoint" />
            <mxPoint x="-265.42" y="-610" as="targetPoint" />
          </mxGeometry>
        </mxCell>
        <mxCell id="piBWAhDa9fmfzuTeJant-262" value="" style="shape=flexArrow;endArrow=classic;html=1;rounded=0;fillColor=#f8cecc;strokeColor=#b85450;" edge="1" parent="1">
          <mxGeometry width="50" height="50" relative="1" as="geometry">
            <mxPoint x="-210" y="-405.4200000000001" as="sourcePoint" />
            <mxPoint x="-80" y="-240" as="targetPoint" />
          </mxGeometry>
        </mxCell>
        <mxCell id="piBWAhDa9fmfzuTeJant-263" value="" style="shape=flexArrow;endArrow=classic;html=1;rounded=0;fillColor=#f8cecc;strokeColor=#b85450;" edge="1" parent="1">
          <mxGeometry width="50" height="50" relative="1" as="geometry">
            <mxPoint x="-590" y="-230" as="sourcePoint" />
            <mxPoint x="-500" y="-229.5" as="targetPoint" />
          </mxGeometry>
        </mxCell>
        <mxCell id="piBWAhDa9fmfzuTeJant-264" value="" style="shape=flexArrow;endArrow=classic;html=1;rounded=0;fillColor=#f8cecc;strokeColor=#b85450;" edge="1" parent="1">
          <mxGeometry width="50" height="50" relative="1" as="geometry">
            <mxPoint x="-590" y="-149.5" as="sourcePoint" />
            <mxPoint x="-500" y="-149" as="targetPoint" />
          </mxGeometry>
        </mxCell>
        <mxCell id="piBWAhDa9fmfzuTeJant-265" value="" style="shape=flexArrow;endArrow=classic;html=1;rounded=0;fillColor=#f8cecc;strokeColor=#b85450;" edge="1" parent="1">
          <mxGeometry width="50" height="50" relative="1" as="geometry">
            <mxPoint x="-580" y="-1" as="sourcePoint" />
            <mxPoint x="-360" y="-1" as="targetPoint" />
          </mxGeometry>
        </mxCell>
        <mxCell id="piBWAhDa9fmfzuTeJant-266" value="Women" style="rounded=0;whiteSpace=wrap;html=1;fillColor=#dae8fc;strokeColor=#6c8ebf;" vertex="1" parent="1">
          <mxGeometry x="-300" y="-200" width="70" height="30" as="geometry" />
        </mxCell>
        <mxCell id="piBWAhDa9fmfzuTeJant-267" value="Women" style="rounded=0;whiteSpace=wrap;html=1;fillColor=#dae8fc;strokeColor=#6c8ebf;" vertex="1" parent="1">
          <mxGeometry x="-300" y="-20" width="70" height="30" as="geometry" />
        </mxCell>
        <mxCell id="piBWAhDa9fmfzuTeJant-268" value="" style="shape=flexArrow;endArrow=classic;html=1;rounded=0;fillColor=#f8cecc;strokeColor=#b85450;" edge="1" parent="1">
          <mxGeometry width="50" height="50" relative="1" as="geometry">
            <mxPoint x="-400" y="-185.42000000000002" as="sourcePoint" />
            <mxPoint x="-310" y="-184.92000000000002" as="targetPoint" />
          </mxGeometry>
        </mxCell>
        <mxCell id="piBWAhDa9fmfzuTeJant-269" value="" style="shape=flexArrow;endArrow=classic;startArrow=classic;html=1;rounded=0;fillColor=#f8cecc;strokeColor=#b85450;" edge="1" parent="1">
          <mxGeometry width="100" height="100" relative="1" as="geometry">
            <mxPoint x="-260" y="-30" as="sourcePoint" />
            <mxPoint x="-260" y="-149.5" as="targetPoint" />
          </mxGeometry>
        </mxCell>
        <mxCell id="piBWAhDa9fmfzuTeJant-270" value="" style="shape=flexArrow;endArrow=classic;html=1;rounded=0;fillColor=#f8cecc;strokeColor=#b85450;" edge="1" parent="1">
          <mxGeometry width="50" height="50" relative="1" as="geometry">
            <mxPoint x="-220" y="-190" as="sourcePoint" />
            <mxPoint x="-70" y="-230" as="targetPoint" />
          </mxGeometry>
        </mxCell>
        <mxCell id="piBWAhDa9fmfzuTeJant-271" value="" style="shape=flexArrow;endArrow=classic;html=1;rounded=0;fillColor=#d5e8d4;strokeColor=#82b366;" edge="1" parent="1">
          <mxGeometry width="50" height="50" relative="1" as="geometry">
            <mxPoint x="-690" y="-700" as="sourcePoint" />
            <mxPoint x="-690" y="-450" as="targetPoint" />
            <Array as="points">
              <mxPoint x="-760" y="-700" />
              <mxPoint x="-760" y="-450" />
            </Array>
          </mxGeometry>
        </mxCell>
        <mxCell id="piBWAhDa9fmfzuTeJant-272" value="IsAlwaysA" style="edgeLabel;html=1;align=center;verticalAlign=middle;resizable=0;points=[];" vertex="1" connectable="0" parent="piBWAhDa9fmfzuTeJant-271">
          <mxGeometry x="0.2598" y="1" relative="1" as="geometry">
            <mxPoint as="offset" />
          </mxGeometry>
        </mxCell>
        <mxCell id="piBWAhDa9fmfzuTeJant-273" value="" style="shape=flexArrow;endArrow=classic;html=1;rounded=0;fillColor=#d5e8d4;strokeColor=#82b366;" edge="1" parent="1">
          <mxGeometry width="50" height="50" relative="1" as="geometry">
            <mxPoint x="-690" y="-570" as="sourcePoint" />
            <mxPoint x="-730" y="-370" as="targetPoint" />
            <Array as="points">
              <mxPoint x="-800" y="-570" />
              <mxPoint x="-800" y="-370" />
            </Array>
          </mxGeometry>
        </mxCell>
        <mxCell id="piBWAhDa9fmfzuTeJant-274" value="IsAlwaysA" style="edgeLabel;html=1;align=center;verticalAlign=middle;resizable=0;points=[];" vertex="1" connectable="0" parent="piBWAhDa9fmfzuTeJant-273">
          <mxGeometry x="0.2598" y="1" relative="1" as="geometry">
            <mxPoint y="-59" as="offset" />
          </mxGeometry>
        </mxCell>
        <mxCell id="piBWAhDa9fmfzuTeJant-275" value="CanBeA" style="shape=flexArrow;endArrow=classic;html=1;rounded=0;fillColor=#d5e8d4;strokeColor=#82b366;" edge="1" parent="1">
          <mxGeometry width="50" height="50" relative="1" as="geometry">
            <mxPoint x="-690" y="-659.5" as="sourcePoint" />
            <mxPoint x="-700" y="-410" as="targetPoint" />
            <Array as="points">
              <mxPoint x="-840" y="-660" />
              <mxPoint x="-840" y="-410" />
            </Array>
          </mxGeometry>
        </mxCell>
        <mxCell id="piBWAhDa9fmfzuTeJant-278" value="CanBeA" style="shape=flexArrow;endArrow=classic;html=1;rounded=0;fillColor=#d5e8d4;strokeColor=#82b366;" edge="1" parent="1">
          <mxGeometry width="50" height="50" relative="1" as="geometry">
            <mxPoint x="-690" y="-650" as="sourcePoint" />
            <mxPoint x="-680" y="-440" as="targetPoint" />
            <Array as="points">
              <mxPoint x="-890" y="-650" />
              <mxPoint x="-890" y="-440" />
            </Array>
          </mxGeometry>
        </mxCell>
        <mxCell id="piBWAhDa9fmfzuTeJant-279" value="CanBeA" style="shape=flexArrow;endArrow=classic;html=1;rounded=0;fillColor=#d5e8d4;strokeColor=#82b366;" edge="1" parent="1">
          <mxGeometry width="50" height="50" relative="1" as="geometry">
            <mxPoint x="-690" y="-620" as="sourcePoint" />
            <mxPoint x="-730" y="-370" as="targetPoint" />
            <Array as="points">
              <mxPoint x="-870" y="-620" />
              <mxPoint x="-870" y="-370" />
            </Array>
          </mxGeometry>
        </mxCell>
        <mxCell id="piBWAhDa9fmfzuTeJant-280" value="CanBeA" style="shape=flexArrow;endArrow=classic;html=1;rounded=0;fillColor=#d5e8d4;strokeColor=#82b366;" edge="1" parent="1">
          <mxGeometry width="50" height="50" relative="1" as="geometry">
            <mxPoint x="-690" y="-610" as="sourcePoint" />
            <mxPoint x="-710" y="-400" as="targetPoint" />
            <Array as="points">
              <mxPoint x="-920" y="-610" />
              <mxPoint x="-920" y="-400" />
            </Array>
          </mxGeometry>
        </mxCell>
      </root>
    </mxGraphModel>
  </diagram>
</mxfile>
